# xmcd
#
# Track frame offsets:
#	150
#	16419
#	29907
#	40900
#	57707
#	92517
#	117185
#	137581
#	159900
#	170937
#	181937
#	195418
#	209395
#	221508
#	236182
#	248238
#	260793
#	281027
#	303182
#	314393
#
# Disc length: 4374
#
# Revision: 2
# Processed by: cddbd v1.5.1PL0 Copyright (c) Steve Scherf et al.
# Submitted via: audiograbber 1.81.02
# Normalized: r1:DSETVAR1
#
DISCID=2c111414
DTITLE=Various Artist - Only Blues
DYEAR=1900
DGENRE=Blues
TTITLE0=Terr, Winter and Dixon - I think I got the Blues
TTITLE1=Leadbelly - Backwater Blues
TTITLE2=Howlin' Wolf - The Red Rooster
TTITLE3=Muddy Waters - I'm your Hoochie Coochie Man
TTITLE4=Gary Moore - As the Years go passing by
TTITLE5=John Lee Hooker - My first Wife left me
TTITLE6=Collins, Cray and Copeland - Bring your Fine self Home
TTITLE7=B. B. King - The Thrill is gone
TTITLE8=Eric Clapton - White Snake
TTITLE9=Howlin' Wolf - You'll be mine
TTITLE10=Lightnin' Hopkins - Mojo Hand
TTITLE11=Muddy Waters - You can't loose what you ain't never had
TTITLE12=Sunny Boy Williamson - Trust my Baby
TTITLE13=John Lee Hooker - Sugar Mama
TTITLE14=Big Joe Williams - Ride in my new Car
TTITLE15=Elmore James - Standing at the Crossroad
TTITLE16=John Lee Hooker - I'm in the Mood
TTITLE17=Gary Moore - Midnight Blues
TTITLE18=John Lee Hooker - Boom Boom
TTITLE19=Leadbelly - Medley
EXTD=
EXTT0=
EXTT1=
EXTT2=
EXTT3=
EXTT4=
EXTT5=
EXTT6=
EXTT7=
EXTT8=
EXTT9=
EXTT10=
EXTT11=
EXTT12=
EXTT13=
EXTT14=
EXTT15=
EXTT16=
EXTT17=
EXTT18=
EXTT19=
PLAYORDER=
